<svg version="1.1" xmlns="http://www.w3.org/2000/svg" xmlns:xlink="http://www.w3.org/1999/xlink" width="31.90909" height="24.15909" viewBox="0,0,31.90909,24.15909"><g transform="translate(-224.04547,-168.13638)"><g stroke-miterlimit="10"><path d="M237.40911,180.00001c0,-1.43092 1.15999,-2.59091 2.59091,-2.59091c1.43092,0 2.59091,1.15999 2.59091,2.59091c0,1.43092 -1.15999,2.59091 -2.59091,2.59091c-1.43092,0 -2.59091,-1.15999 -2.59091,-2.59091z" fill="#9966ff" stroke="none" stroke-width="NaN"/><g><g fill="#2b2b2b"><g stroke="#000000" stroke-width="3"><path d="M226.43184,180.00002c0,-4.39318 3.56137,-7.95454 7.95455,-7.95454c4.39318,0 7.95454,3.56137 7.95454,7.95454c0,4.39318 -3.56137,7.95454 -7.95454,7.95454c-4.39318,0 -7.95455,-3.56137 -7.95455,-7.95454z"/><path d="M234.43184,187.95457v-15.90909h11.18182v15.90909z"/><path d="M237.65911,180.00002c0,-4.39318 3.56137,-7.95454 7.95454,-7.95454c4.39318,0 7.95455,3.56137 7.95455,7.95454c0,4.39318 -3.56137,7.95454 -7.95455,7.95454c-4.39318,0 -7.95454,-3.56137 -7.95454,-7.95454z"/></g><g stroke="none"><path d="M226.43184,180.00002c0,-4.39317 3.56137,-7.95455 7.95455,-7.95455c4.39317,0 7.95455,3.56137 7.95455,7.95455c0,4.39317 -3.56137,7.95455 -7.95455,7.95455c-4.39317,0 -7.95455,-3.56137 -7.95455,-7.95455z" stroke-width="NaN"/><path d="M234.43184,187.95457v-15.90909h11.18182v15.90909z" stroke-width="0"/><path d="M237.65911,180.00002c0,-4.39318 3.56137,-7.95454 7.95454,-7.95454c4.39318,0 7.95454,3.56137 7.95454,7.95454c0,4.39318 -3.56137,7.95454 -7.95454,7.95454c-4.39318,0 -7.95454,-3.56137 -7.95454,-7.95454z" stroke-width="NaN"/></g></g><path d="M237.6591,180.00002c0,-4.39317 3.56137,-7.95455 7.95455,-7.95455c4.39317,0 7.95455,3.56137 7.95455,7.95455c0,4.39317 -3.56137,7.95455 -7.95455,7.95455c-4.39317,0 -7.95455,-3.56137 -7.95455,-7.95455z" fill="#929292" stroke="none" stroke-width="NaN"/></g><text transform="translate(234.10532,181.34738) scale(0.11228,0.11228)" font-size="40" xml:space="preserve" fill="#000000" stroke="none" stroke-width="1" font-family="Pixel" font-weight="normal" text-anchor="start"><tspan x="0" dy="0">text</tspan></text><path d="M224.04548,192.29548v-24.15909h31.90909v24.15909z" fill="none" stroke="none" stroke-width="0"/></g></g></svg>