<svg version="1.1" xmlns="http://www.w3.org/2000/svg" xmlns:xlink="http://www.w3.org/1999/xlink" width="42.33333" height="18.5" viewBox="0,0,42.33333,18.5"><g transform="translate(-218.83334,-170.75)"><g stroke-miterlimit="10"><g stroke-linecap="butt"><path d="M219.83334,188.25v-16.5h40.33333v16.5z" fill="#929292" stroke="#000000" stroke-width="2"/><text transform="translate(223.18643,182.97709) scale(0.25804,0.25804)" font-size="40" xml:space="preserve" fill="#2b2b2b" stroke="none" stroke-width="1" font-family="Sans Serif" font-weight="normal" text-anchor="start"><tspan x="0" dy="0">Save</tspan></text></g><g stroke="#000000"><path d="M258.53138,184.58471c0,0 -0.81705,2.03125 -1.99512,2.03125c-2.50709,0 -6.64925,0 -8.03125,0c-0.88689,0 -1.91114,-2.03125 -1.91114,-2.03125" fill="none" stroke-width="1" stroke-linecap="round"/><g fill="#2b2b2b" stroke-linecap="butt"><path d="M250.99119,180.22426v-6.84022h3.14286v6.84022z" stroke-width="1"/><path d="M252.56262,183.4166l-3.63655,-3.63655h7.2731z" stroke-width="1"/><path d="M252.56262,183.4166l-3.63654,-3.63655c0,0 2.24006,0 3.41267,0c1.24716,0 3.86043,0 3.86043,0z" stroke-width="0"/><path d="M250.9912,180.22426v-6.84022h3.14285v6.84022z" stroke-width="0"/></g></g></g></g></svg>