<svg version="1.1" xmlns="http://www.w3.org/2000/svg" xmlns:xlink="http://www.w3.org/1999/xlink" width="42.33333" height="18.5" viewBox="0,0,42.33333,18.5"><g transform="translate(-218.83333,-170.75)"><g stroke-miterlimit="10"><path d="M219.83333,188.25v-16.5h40.33333v16.5z" fill="#929292" stroke="#000000" stroke-width="2" stroke-linecap="butt"/><text transform="translate(223.18643,182.97708) scale(0.25804,0.25804)" font-size="40" xml:space="preserve" fill="#2b2b2b" stroke="none" stroke-width="1" stroke-linecap="butt" font-family="Sans Serif" font-weight="normal" text-anchor="start"><tspan x="0" dy="0">import</tspan></text><g stroke-linecap="butt"><path d="M219.83334,188.25v-16.5h40.33333v16.5z" fill="#929292" stroke="#000000" stroke-width="2"/><text transform="translate(223.18643,182.97709) scale(0.25804,0.25804)" font-size="40" xml:space="preserve" fill="#2b2b2b" stroke="none" stroke-width="1" font-family="Sans Serif" font-weight="normal" text-anchor="start"><tspan x="0" dy="0">Load</tspan></text></g><g stroke="#000000"><path d="M246.59387,184.58471c0,0 1.02425,2.03125 1.91114,2.03125c1.38199,0 5.52416,0 8.03125,0c1.17807,0 1.99511,-2.03125 1.99511,-2.03125" fill="none" stroke-width="1" stroke-linecap="round"/><g fill="#2b2b2b" stroke-linecap="butt"><path d="M254.13405,176.57638v6.84022h-3.14286v-6.84022z" stroke-width="1"/><path d="M256.19917,177.02059h-7.2731l3.63655,-3.63655z" stroke-width="1"/><path d="M256.19917,177.02059c0,0 -2.61326,0 -3.86042,0c-1.17261,0 -3.41267,0 -3.41267,0l3.63655,-3.63655z" stroke-width="0"/><path d="M254.13405,176.57638v6.84022h-3.14285v-6.84022z" stroke-width="0"/></g></g></g></g></svg>