<svg version="1.1" xmlns="http://www.w3.org/2000/svg" xmlns:xlink="http://www.w3.org/1999/xlink" width="31.90909" height="24.03409" viewBox="0,0,31.90909,24.03409"><g transform="translate(-224.04545,-168.13636)"><g stroke-miterlimit="10"><path d="M236.68182,180c0,-1.83258 1.4856,-3.31818 3.31818,-3.31818c1.83258,0 3.31818,1.4856 3.31818,3.31818c0,1.83258 -1.4856,3.31818 -3.31818,3.31818c-1.83258,0 -3.31818,-1.4856 -3.31818,-3.31818z" fill="#9966ff" stroke="none" stroke-width="NaN"/><g><g fill="#2b2b2b"><g stroke="#000000" stroke-width="3"><path d="M226.43182,180.00002c0,-4.39318 3.56137,-7.95454 7.95455,-7.95454c4.39318,0 7.95454,3.56137 7.95454,7.95454c0,4.39318 -3.56137,7.95454 -7.95454,7.95454c-4.39318,0 -7.95455,-3.56137 -7.95455,-7.95454z"/><path d="M234.43182,187.95457v-15.90909h11.18182v15.90909z"/><path d="M237.65909,180.00002c0,-4.39318 3.56137,-7.95454 7.95454,-7.95454c4.39318,0 7.95455,3.56137 7.95455,7.95454c0,4.39318 -3.56137,7.95454 -7.95455,7.95454c-4.39318,0 -7.95454,-3.56137 -7.95454,-7.95454z"/></g><path d="M226.43182,180.00002c0,-4.39317 3.56137,-7.95455 7.95455,-7.95455c4.39317,0 7.95455,3.56137 7.95455,7.95455c0,4.39317 -3.56137,7.95455 -7.95455,7.95455c-4.39317,0 -7.95455,-3.56137 -7.95455,-7.95455z" stroke="none" stroke-width="NaN"/><path d="M234.43182,187.95457v-15.90909h11.18182v15.90909z" stroke="none" stroke-width="0"/><path d="M237.65909,180.00002c0,-4.39318 3.56137,-7.95454 7.95454,-7.95454c4.39318,0 7.95454,3.56137 7.95454,7.95454c0,4.39318 -3.56137,7.95454 -7.95454,7.95454c-4.39318,0 -7.95454,-3.56137 -7.95454,-7.95454z" stroke="none" stroke-width="NaN"/></g><path d="M226.43182,180.00002c0,-4.39317 3.56137,-7.95455 7.95455,-7.95455c4.39317,0 7.95455,3.56137 7.95455,7.95455c0,4.39317 -3.56137,7.95455 -7.95455,7.95455c-4.39317,0 -7.95455,-3.56137 -7.95455,-7.95455z" fill="#929292" stroke="none" stroke-width="NaN"/></g><text transform="translate(230.7369,181.34738) scale(0.11228,0.11228)" font-size="40" xml:space="preserve" fill="#000000" stroke="none" stroke-width="1" font-family="Pixel" font-weight="normal" text-anchor="start"><tspan x="0" dy="0">scratch</tspan></text><path d="M224.04545,192.17045v-24.03409h31.90909v24.03409z" fill="none" stroke="none" stroke-width="0"/></g></g></svg>