<svg version="1.1" xmlns="http://www.w3.org/2000/svg" xmlns:xlink="http://www.w3.org/1999/xlink" width="51.22575" height="51.22575" viewBox="0,0,51.22575,51.22575"><g transform="translate(-214.38714,-154.38714)"><g stroke-miterlimit="10"><g><path d="M215.13714,196.15696c0,-5.6938 0,-21.74681 0,-32.00016c0,-5.2783 5.03096,-9.01966 9.17652,-9.01966c5.75483,0 21.59263,0 31.68644,0c5.19097,0 8.86279,5.03096 8.86279,9.17652c0,5.78473 0,21.75748 0,31.8433c0,5.10792 -4.63372,8.70593 -8.54906,8.70593c-5.68169,0 -21.85236,0 -32.15703,0c-5.27981,0 -9.01965,-4.7325 -9.01965,-8.70593z" fill="#7bd2d2" stroke="#000000" stroke-width="1.5" stroke-linecap="butt"/><text transform="translate(218.76004,176.39215) scale(0.5,0.5)" font-size="40" xml:space="preserve" fill="#610500" stroke="none" stroke-width="1" stroke-linecap="butt" font-family="Scratch" font-weight="normal" text-anchor="start"><tspan x="0" dy="0">Bo ed</tspan></text><text transform="translate(218.76004,194.27459) scale(0.5,0.5)" font-size="40" xml:space="preserve" fill="#610500" stroke="none" stroke-width="1" stroke-linecap="butt" font-family="Scratch" font-weight="normal" text-anchor="start"><tspan x="0" dy="0">lang</tspan></text><path d="M219.60776,178.7451h25.88248" fill="#610500" stroke="#000000" stroke-width="2" stroke-linecap="round"/><text transform="translate(246.27456,175.95676) rotate(-180) scale(0.5,-0.5)" font-size="40" xml:space="preserve" fill="#610500" stroke="none" stroke-width="1" stroke-linecap="butt" font-family="Scratch" font-weight="normal" text-anchor="start"><tspan x="0" dy="0">x</tspan></text></g></g></g></svg>